<svg id="Layer_1" data-name="Layer 1" xmlns="http://www.w3.org/2000/svg" width="256" height="256" viewBox="0 0 256 256">
<title>VizBox Logo</title>
<g>
<path d="M128+204.21L128+254.497C128+254.604+127.943+254.704+127.85+254.757C127.757+254.811+127.643+254.811+127.55+254.757L18+191.509L18+65.0113C17.9999+64.9041+18.0571+64.805+18.1499+64.7513C18.2427+64.6977+18.3571+64.6977+18.45+64.7513L62+89.8949L62+166.105L128+204.21Z" opacity="1" fill="#5e8fff"/>
<path d="M194+89.8949L194+166.105L237.55+191.248C237.643+191.302+237.757+191.302+237.85+191.248C237.943+191.195+238+191.096+238+190.988L238+64.4917L128.45+1.2427C128.357+1.18909+128.243+1.18911+128.15+1.24275C128.057+1.29638+128+1.39549+128+1.5027L128+51.79L194+89.8949Z" opacity="1" fill="#515f90"/>
</g>
</svg>
